<svg width="48" height="48" viewBox="0 0 48 48" fill="none" xmlns="http://www.w3.org/2000/svg">
<g clip-path="url(#clip0_16001_32522)">
<path d="M24 14.25C29.385 14.25 33.75 18.615 33.75 24C33.75 29.385 29.385 33.75 24 33.75C18.615 33.75 14.25 29.385 14.25 24C14.25 18.615 18.615 14.25 24 14.25ZM25.5 6C25.5 6.2745 25.5 10.2255 25.5 10.5C25.5 11.3288 24.8288 12 24 12C23.1712 12 22.5 11.3288 22.5 10.5C22.5 10.2255 22.5 6.2745 22.5 6C22.5 5.17125 23.1712 4.5 24 4.5C24.8288 4.5 25.5 5.17125 25.5 6ZM37.7887 12.333C37.5945 12.5273 34.8007 15.321 34.6065 15.5153C34.0207 16.101 33.0712 16.101 32.4855 15.5153C31.8997 14.9295 31.8997 13.98 32.4855 13.3942C32.6797 13.2 35.4735 10.4062 35.6677 10.212C36.2535 9.62625 37.203 9.62625 37.7887 10.212C38.3745 10.7977 38.3745 11.7473 37.7887 12.333ZM42 25.5C41.7255 25.5 37.7745 25.5 37.5 25.5C36.6712 25.5 36 24.8288 36 24C36 23.1712 36.6712 22.5 37.5 22.5C37.7745 22.5 41.7255 22.5 42 22.5C42.8288 22.5 43.5 23.1712 43.5 24C43.5 24.8288 42.8288 25.5 42 25.5ZM35.667 37.7887C35.4727 37.5945 32.679 34.8007 32.4847 34.6065C31.899 34.0207 31.899 33.0712 32.4847 32.4855C33.0705 31.8997 34.02 31.8997 34.6057 32.4855C34.8 32.6797 37.5938 35.4735 37.788 35.6677C38.3737 36.2535 38.3737 37.203 37.788 37.7887C37.2022 38.3745 36.2528 38.3745 35.667 37.7887ZM22.5 42C22.5 41.7255 22.5 37.7745 22.5 37.5C22.5 36.6712 23.1712 36 24 36C24.8288 36 25.5 36.6712 25.5 37.5C25.5 37.7745 25.5 41.7255 25.5 42C25.5 42.8288 24.8288 43.5 24 43.5C23.1712 43.5 22.5 42.8288 22.5 42ZM10.2112 35.667C10.4055 35.4727 13.1993 32.679 13.3935 32.4847C13.9792 31.899 14.9288 31.899 15.5145 32.4847C16.1003 33.0705 16.1003 34.02 15.5145 34.6057C15.3203 34.8 12.5265 37.5938 12.3323 37.788C11.7465 38.3737 10.797 38.3737 10.2112 37.788C9.6255 37.2022 9.6255 36.2528 10.2112 35.667ZM6 22.5C6.2745 22.5 10.2255 22.5 10.5 22.5C11.3288 22.5 12 23.1712 12 24C12 24.8288 11.3288 25.5 10.5 25.5C10.2255 25.5 6.2745 25.5 6 25.5C5.17125 25.5 4.5 24.8288 4.5 24C4.5 23.1712 5.17125 22.5 6 22.5ZM12.333 10.2112C12.5273 10.4055 15.321 13.1993 15.5153 13.3935C16.101 13.9792 16.101 14.9288 15.5153 15.5145C14.9295 16.1003 13.98 16.1003 13.3942 15.5145C13.2 15.3203 10.4062 12.5265 10.212 12.3323C9.62625 11.7465 9.62625 10.797 10.212 10.2112C10.7977 9.6255 11.7473 9.6255 12.333 10.2112Z" fill="white"/>
</g>
<defs>
<clipPath id="clip0_16001_32522">
<rect width="48" height="48" fill="white"/>
</clipPath>
</defs>
</svg>
