<svg width="66" height="66" viewBox="0 0 66 66" fill="none" xmlns="http://www.w3.org/2000/svg">
<path d="M33 0C51.2254 0 66 14.7746 66 33C66 51.2254 51.2254 66 33 66C14.7746 66 0 51.2254 0 33C0 14.7746 14.7746 0 33 0ZM33.2012 4.8291C17.5319 4.82919 4.82919 17.5319 4.8291 33.2012L4.83789 33.9336C5.22026 49.021 17.3813 61.1811 32.4688 61.5635L33.2012 61.5732C48.6256 61.5732 61.1749 49.2644 61.5635 33.9336L61.5732 33.2012C61.5732 17.7768 49.2644 5.22642 33.9336 4.83789L33.2012 4.8291ZM33.2012 9.8291C46.109 9.82917 56.5732 20.2933 56.5732 33.2012C56.5732 46.1091 46.1091 56.5732 33.2012 56.5732C20.2933 56.5732 9.82917 46.109 9.8291 33.2012C9.82919 20.2933 20.2933 9.82919 33.2012 9.8291Z" fill="white"/>
</svg>
