<svg width="48" height="48" viewBox="0 0 48 48" fill="none" xmlns="http://www.w3.org/2000/svg">
<path d="M15.75 8.25C13.794 8.25 12.1317 9.50475 11.5122 11.25H33C36.7222 11.25 39.75 14.2785 39.75 18V34.2378C41.4953 33.619 42.75 31.956 42.75 30V12.75C42.75 10.2675 40.7325 8.25 38.25 8.25H15.75ZM10.5 13.5C8.01825 13.5 6 15.5182 6 18V35.25C6 37.7318 8.01825 39.75 10.5 39.75H33C35.4818 39.75 37.5 37.7318 37.5 35.25V18C37.5 15.5182 35.4818 13.5 33 13.5H10.5ZM18.3237 21.8438C19.3332 21.8438 20.1519 22.6616 20.1519 23.6719C20.1519 24.6821 19.3332 25.5 18.3237 25.5C17.3142 25.5 16.4956 24.6821 16.4956 23.6719C16.4956 22.6616 17.3142 21.8438 18.3237 21.8438ZM28.418 25.3022C29.1536 25.3013 29.89 25.5631 30.4746 26.0889L34.5 29.7085V35.25C34.5 36.0772 33.8272 36.75 33 36.75H24.145H14.5693H10.5C9.67275 36.75 9 36.0772 9 35.25V30.5801L10.8809 28.96C12.0726 27.9332 13.8338 27.9304 15.0293 28.9526L19.2261 32.543L26.3628 26.0947C26.9463 25.5675 27.6823 25.3032 28.418 25.3022Z" fill="white"/>
</svg>
