<svg width="48" height="48" viewBox="0 0 48 48" fill="none" xmlns="http://www.w3.org/2000/svg">
<path d="M24 8.25C14.9018 8.25 7.5 15.6518 7.5 24.75C7.5 33.8482 14.9018 41.25 24 41.25C33.0982 41.25 40.5 33.8482 40.5 24.75C40.5 15.6518 33.0982 8.25 24 8.25ZM27 11.5986C27.7758 11.7756 28.5311 12.0074 29.25 12.312V23.7451L35.417 17.5781C35.8352 18.2414 36.2017 18.9388 36.501 19.6729L28.4253 27.75H37.1514C36.9744 28.5258 36.7426 29.2811 36.438 30H25.0049L31.1719 36.167C30.5086 36.5852 29.8112 36.9517 29.0771 37.251L21 29.1753V37.9014C20.2242 37.7244 19.4689 37.4926 18.75 37.188V25.7549L12.583 31.9219C12.1648 31.2586 11.7983 30.5612 11.499 29.8271L19.5747 21.75H10.8486C11.0256 20.9742 11.2574 20.2189 11.562 19.5H22.9951L16.8281 13.333C17.4914 12.9148 18.1888 12.5483 18.9229 12.249L27 20.3247V11.5986ZM24 21.75C22.3433 21.75 21 23.0933 21 24.75C21 26.4067 22.3433 27.75 24 27.75C25.6567 27.75 27 26.4067 27 24.75C27 23.0933 25.6567 21.75 24 21.75Z" fill="white"/>
</svg>
