<svg width="48" height="48" viewBox="0 0 48 48" fill="none" xmlns="http://www.w3.org/2000/svg">
<path d="M23.5 7C14.3875 7 7 14.3875 7 23.5C7 32.6125 14.3875 40 23.5 40C32.6125 40 40 32.6125 40 23.5C40 14.3875 32.6125 7 23.5 7ZM30.2456 11.8179C34.2794 14.1525 37 18.5042 37 23.5H29.5C29.5 21.2834 28.2882 19.3489 26.4956 18.3101L30.2456 11.8179ZM16.7529 11.8193L20.5015 18.3115C18.7104 19.3508 17.5 21.2846 17.5 23.5H10C10 18.5049 12.7201 14.1542 16.7529 11.8193ZM23.5 20.5C25.1545 20.5 26.5 21.8455 26.5 23.5C26.5 25.1545 25.1545 26.5 23.5 26.5C21.8455 26.5 20.5 25.1545 20.5 23.5C20.5 21.8455 21.8455 20.5 23.5 20.5ZM20.5044 28.6914C21.3871 29.2028 22.4086 29.5 23.5 29.5C24.5914 29.5 25.6129 29.2028 26.4956 28.6914L30.2427 35.1836C28.2571 36.3321 25.9588 37 23.5 37C21.0412 37 18.7429 36.3321 16.7573 35.1836L20.5044 28.6914Z" fill="white"/>
</svg>
