<svg width="48" height="48" viewBox="0 0 48 48" fill="none" xmlns="http://www.w3.org/2000/svg">
<path d="M22.18 7C19.6328 7 17.56 9.07281 17.56 11.62C17.56 14.1672 19.6328 16.24 22.18 16.24C24.7272 16.24 26.8 14.1672 26.8 11.62C26.8 9.07281 24.7272 7 22.18 7ZM33.4 11.62C30.4893 11.62 28.12 13.9893 28.12 16.9C28.12 19.8107 30.4893 22.18 33.4 22.18C36.3107 22.18 38.68 19.8107 38.68 16.9C38.68 13.9893 36.3107 11.62 33.4 11.62ZM12.94 12.28C10.7563 12.28 8.98 14.0563 8.98 16.24C8.98 18.4237 10.7563 20.2 12.94 20.2C15.1237 20.2 16.9 18.4237 16.9 16.24C16.9 14.0563 15.1237 12.28 12.94 12.28ZM10.3 21.52C8.47984 21.52 7 22.9998 7 24.82C7 26.6402 8.47984 28.12 10.3 28.12C12.1202 28.12 13.6 26.6402 13.6 24.82C13.6 22.9998 12.1202 21.52 10.3 21.52ZM34.06 24.16C30.7832 24.16 28.12 26.8232 28.12 30.1C28.12 33.3768 30.7832 36.04 34.06 36.04C37.3368 36.04 40 33.3768 40 30.1C40 26.8232 37.3368 24.16 34.06 24.16ZM12.94 30.76C11.4834 30.76 10.3 31.9434 10.3 33.4C10.3 34.8566 11.4834 36.04 12.94 36.04C14.3966 36.04 15.58 34.8566 15.58 33.4C15.58 31.9434 14.3966 30.76 12.94 30.76ZM20.2 36.04C19.1095 36.04 18.22 36.9295 18.22 38.02C18.22 39.1105 19.1095 40 20.2 40C21.2905 40 22.18 39.1105 22.18 38.02C22.18 36.9295 21.2905 36.04 20.2 36.04Z" fill="white"/>
</svg>
