<svg width="48" height="48" viewBox="0 0 48 48" fill="none" xmlns="http://www.w3.org/2000/svg">
<path d="M33 7.5C30.1057 7.5 27.75 9.855 27.75 12.75C27.75 13.0594 27.7819 13.3605 27.8335 13.6553L16.3755 19.3843C15.6317 18.9797 14.7795 18.75 13.875 18.75C10.9808 18.75 8.625 21.105 8.625 24C8.625 26.895 10.9808 29.25 13.875 29.25C14.9314 29.25 15.9142 28.9338 16.7388 28.3945L27.7749 34.7651C27.7602 34.925 27.75 35.0864 27.75 35.25C27.75 38.145 30.1057 40.5 33 40.5C35.8943 40.5 38.25 38.145 38.25 35.25C38.25 32.355 35.8943 30 33 30C31.351 30 29.8793 30.7667 28.916 31.96L18.7017 26.064C18.9738 25.4301 19.125 24.7324 19.125 24C19.125 23.1531 18.9188 22.3551 18.561 21.646L29.1782 16.3374C30.1367 17.3578 31.4933 18 33 18C35.8943 18 38.25 15.645 38.25 12.75C38.25 9.855 35.8943 7.5 33 7.5Z" fill="white"/>
</svg>
