<svg width="48" height="48" viewBox="0 0 48 48" fill="none" xmlns="http://www.w3.org/2000/svg">
<path d="M16.5 9C14.1269 9 12.1185 10.584 11.4712 12.75H7.5C6.672 12.75 6 13.422 6 14.25C6 15.078 6.672 15.75 7.5 15.75H11.4712C12.1185 17.916 14.1269 19.5 16.5 19.5C18.8731 19.5 20.8815 17.916 21.5288 15.75H40.5C41.328 15.75 42 15.078 42 14.25C42 13.422 41.328 12.75 40.5 12.75H21.5288C20.8815 10.584 18.8731 9 16.5 9ZM31.5 18.75C29.1269 18.75 27.1185 20.334 26.4712 22.5H7.5C6.672 22.5 6 23.172 6 24C6 24.828 6.672 25.5 7.5 25.5H26.4712C27.1185 27.666 29.1269 29.25 31.5 29.25C33.8731 29.25 35.8815 27.666 36.5288 25.5H40.5C41.328 25.5 42 24.828 42 24C42 23.172 41.328 22.5 40.5 22.5H36.5288C35.8815 20.334 33.8731 18.75 31.5 18.75ZM19.5 28.5C17.1269 28.5 15.1185 30.084 14.4712 32.25H7.5C6.672 32.25 6 32.922 6 33.75C6 34.578 6.672 35.25 7.5 35.25H14.4712C15.1185 37.416 17.1269 39 19.5 39C21.8731 39 23.8815 37.416 24.5288 35.25H40.5C41.328 35.25 42 34.578 42 33.75C42 32.922 41.328 32.25 40.5 32.25H24.5288C23.8815 30.084 21.8731 28.5 19.5 28.5Z" fill="white"/>
</svg>
