<svg width="48" height="48" viewBox="0 0 48 48" fill="none" xmlns="http://www.w3.org/2000/svg">
<path d="M22.875 4.5C20.5965 4.5 18.75 6.3465 18.75 8.625V28.1763C16.503 29.563 15 32.04 15 34.875C15 39.2243 18.5258 42.75 22.875 42.75C27.2242 42.75 30.75 39.2243 30.75 34.875C30.75 32.04 29.247 29.563 27 28.1763V8.625C27 6.3465 25.1535 4.5 22.875 4.5ZM29.625 10.5C29.004 10.5 28.5 11.0033 28.5 11.625C28.5 12.2467 29.004 12.75 29.625 12.75H32.625C33.246 12.75 33.75 12.2467 33.75 11.625C33.75 11.0033 33.246 10.5 32.625 10.5H29.625ZM29.625 15C29.004 15 28.5 15.5033 28.5 16.125C28.5 16.7467 29.004 17.25 29.625 17.25H32.625C33.246 17.25 33.75 16.7467 33.75 16.125C33.75 15.5033 33.246 15 32.625 15H29.625ZM22.875 18C23.496 18 24 18.504 24 19.125V30.9097C25.7303 31.4002 27 32.9872 27 34.875C27 37.1535 25.1535 39 22.875 39C20.5965 39 18.75 37.1535 18.75 34.875C18.75 32.9872 20.0198 31.4002 21.75 30.9097V19.125C21.75 18.504 22.254 18 22.875 18ZM29.625 19.5C29.004 19.5 28.5 20.0033 28.5 20.625C28.5 21.2467 29.004 21.75 29.625 21.75H32.625C33.246 21.75 33.75 21.2467 33.75 20.625C33.75 20.0033 33.246 19.5 32.625 19.5H29.625ZM29.625 24C29.004 24 28.5 24.5033 28.5 25.125C28.5 25.7467 29.004 26.25 29.625 26.25H32.625C33.246 26.25 33.75 25.7467 33.75 25.125C33.75 24.5033 33.246 24 32.625 24H29.625Z" fill="white"/>
</svg>
