<svg width="48" height="48" viewBox="0 0 48 48" fill="none" xmlns="http://www.w3.org/2000/svg">
<path d="M24.3752 8.625C22.8263 8.625 21.4974 9.56571 20.9255 10.9058C18.4781 10.7927 16.5153 12.0226 14.9123 13.0283C12.5123 14.5343 11.8944 14.8207 10.5969 13.0034C10.1146 12.3292 9.17561 12.1711 8.50361 12.6533C7.82861 13.1348 7.67201 14.0723 8.15351 14.7466C9.12359 16.1047 10.1178 16.8027 11.092 17.0889L5.74237 29.7935L5.74823 29.7964C5.65795 30.0108 5.611 30.2471 5.63105 30.4951C5.83505 33.0474 7.66519 37.875 13.1252 37.875C18.5852 37.875 20.4153 33.0467 20.6193 30.4937C20.6394 30.2457 20.5925 30.0104 20.5021 29.7964L20.508 29.7935L14.905 16.4883C15.4798 16.1966 16.025 15.8708 16.5046 15.5698C17.9799 14.6441 19.3835 13.7752 20.968 13.9219C21.5583 15.2184 22.8579 16.125 24.3752 16.125C25.8927 16.125 27.1937 15.2187 27.7839 13.9219C29.3734 13.7763 30.7708 14.645 32.2458 15.5698C32.7253 15.8708 33.2705 16.195 33.8454 16.4868L28.2424 29.7935L28.2482 29.7964C28.158 30.0108 28.111 30.2471 28.131 30.4951C28.335 33.0474 30.1652 37.875 35.6252 37.875C41.0852 37.875 42.9153 33.0467 43.1193 30.4937C43.1395 30.2457 43.0925 30.0104 43.0021 29.7964L43.008 29.7935L37.6584 17.0874C38.6319 16.8007 39.6274 16.1024 40.5969 14.7451C41.0776 14.0709 40.921 13.1348 40.2468 12.6533C39.574 12.1703 38.6358 12.3277 38.1535 13.002C36.8553 14.82 36.2381 14.5314 33.8381 13.0269C32.235 12.0211 30.2723 10.7946 27.8249 10.9058C27.253 9.56571 25.924 8.625 24.3752 8.625ZM13.1252 19.9907L17.4977 30.375H8.75263L13.1252 19.9907ZM35.6252 19.9907L39.9977 30.375H31.2526L35.6252 19.9907Z" fill="white"/>
<path d="M21.3301 26.8314V19.8617C21.3301 19.447 21.549 19.2281 21.9637 19.2281H24.3598C26.0072 19.2281 27.1592 19.9654 27.1592 21.3824C27.1592 22.0736 26.8251 22.7763 26.203 23.1334V23.1565C27.1477 23.4445 27.4933 24.2854 27.4933 25.0112C27.4933 26.8083 25.9957 27.4649 24.3598 27.4649H21.9637C21.549 27.4649 21.3301 27.2461 21.3301 26.8314ZM23.3461 22.4192H24.3829C24.8898 22.4192 25.1086 22.0505 25.1086 21.6589C25.1086 21.2787 24.8898 20.9561 24.3483 20.9561H23.3461V22.4192ZM23.3461 25.7369H24.5557C25.1432 25.7369 25.4312 25.3337 25.4312 24.8729C25.4312 24.4121 25.1547 24.032 24.5672 24.032H23.3461V25.7369Z" fill="white"/>
</svg>
