<svg width="48" height="48" viewBox="0 0 48 48" fill="none" xmlns="http://www.w3.org/2000/svg">
<path d="M24.3752 8.625C22.8263 8.625 21.4974 9.56571 20.9255 10.9058C18.4781 10.7927 16.5153 12.0226 14.9123 13.0283C12.5123 14.5343 11.8944 14.8207 10.5969 13.0034C10.1146 12.3292 9.17561 12.1711 8.50361 12.6533C7.82861 13.1348 7.67201 14.0723 8.15351 14.7466C9.12359 16.1047 10.1178 16.8027 11.092 17.0889L5.74237 29.7935L5.74823 29.7964C5.65795 30.0108 5.611 30.2471 5.63105 30.4951C5.83505 33.0474 7.66519 37.875 13.1252 37.875C18.5852 37.875 20.4153 33.0467 20.6193 30.4937C20.6394 30.2457 20.5925 30.0104 20.5021 29.7964L20.508 29.7935L14.905 16.4883C15.4798 16.1966 16.025 15.8708 16.5046 15.5698C17.9799 14.6441 19.3835 13.7752 20.968 13.9219C21.5583 15.2184 22.8579 16.125 24.3752 16.125C25.8927 16.125 27.1937 15.2187 27.7839 13.9219C29.3734 13.7763 30.7708 14.645 32.2458 15.5698C32.7253 15.8708 33.2705 16.195 33.8454 16.4868L28.2424 29.7935L28.2482 29.7964C28.158 30.0108 28.111 30.2471 28.131 30.4951C28.335 33.0474 30.1652 37.875 35.6252 37.875C41.0852 37.875 42.9153 33.0467 43.1193 30.4937C43.1395 30.2457 43.0925 30.0104 43.0021 29.7964L43.008 29.7935L37.6584 17.0874C38.6319 16.8007 39.6274 16.1024 40.5969 14.7451C41.0776 14.0709 40.921 13.1348 40.2468 12.6533C39.574 12.1703 38.6358 12.3277 38.1535 13.002C36.8553 14.82 36.2381 14.5314 33.8381 13.0269C32.235 12.0211 30.2723 10.7946 27.8249 10.9058C27.253 9.56571 25.924 8.625 24.3752 8.625ZM13.1252 19.9907L17.4977 30.375H8.75263L13.1252 19.9907ZM35.6252 19.9907L39.9977 30.375H31.2526L35.6252 19.9907Z" fill="white"/>
<path d="M19.9438 23.3984C19.9438 20.8871 21.7525 19.09 24.2754 19.09C25.5886 19.09 26.6139 19.5738 26.948 19.8157C27.2936 20.0692 27.3282 20.3341 27.1093 20.6912L26.8098 21.1636C26.5909 21.5092 26.3144 21.5322 25.9342 21.3364C25.5541 21.1405 25.1163 20.9332 24.4021 20.9332C22.7547 20.9332 22.029 22.0391 22.029 23.2832C22.029 24.8039 23.1118 25.76 24.3675 25.76C25.5426 25.76 26.061 25.0919 26.061 25.0919V24.5274H25.531C25.1163 24.5274 24.8974 24.3085 24.8974 23.8938V23.4445C24.8974 23.0298 25.1163 22.8109 25.531 22.8109H27.213C27.6277 22.8109 27.8466 23.0298 27.8466 23.4445V26.8314C27.8466 27.2461 27.6277 27.465 27.213 27.465H26.8328C26.4181 27.465 26.1992 27.2461 26.1992 26.9696V26.9466C26.1992 26.8775 26.2107 26.8314 26.2107 26.8314H26.1877C26.1877 26.8314 25.4619 27.6032 23.9989 27.6032C21.8792 27.6032 19.9438 25.9904 19.9438 23.3984Z" fill="white"/>
</svg>
