<svg width="48" height="48" viewBox="0 0 48 48" fill="none" xmlns="http://www.w3.org/2000/svg">
<path d="M24.0368 8.72156C22.488 8.72156 21.159 9.66226 20.5871 11.0023C18.1397 10.8892 16.177 12.1191 14.5739 13.1249C12.1739 14.6309 11.556 14.9172 10.2585 13.1C9.77624 12.4257 8.83723 12.2676 8.16523 12.7499C7.49023 13.2314 7.33363 14.1689 7.81513 14.8431C8.78521 16.2013 9.77939 16.8993 10.7536 17.1854L5.404 29.89L5.40986 29.8929C5.31957 30.1074 5.27262 30.3437 5.29267 30.5917C5.49667 33.1439 7.32681 37.9716 12.7868 37.9716C18.2468 37.9716 20.077 33.1432 20.281 30.5902C20.3011 30.3422 20.2542 30.107 20.1638 29.8929L20.1696 29.89L14.5666 16.5848C15.1414 16.2932 15.6866 15.9673 16.1662 15.6664C17.6415 14.7407 19.0451 13.8718 20.6296 14.0184C21.2199 15.3149 22.5196 16.2216 24.0368 16.2216C25.5543 16.2216 26.8553 15.3153 27.4455 14.0184C29.0351 13.8729 30.4324 14.7416 31.9074 15.6664C32.3869 15.9673 32.9322 16.2916 33.507 16.5834L27.904 29.89L27.9099 29.8929C27.8196 30.1074 27.7726 30.3437 27.7927 30.5917C27.9967 33.1439 29.8268 37.9716 35.2868 37.9716C40.7468 37.9716 42.577 33.1432 42.781 30.5902C42.8011 30.3422 42.7542 30.107 42.6638 29.8929L42.6696 29.89L37.32 17.184C38.2935 16.8973 39.289 16.199 40.2585 14.8417C40.7392 14.1674 40.5826 13.2314 39.9084 12.7499C39.2356 12.2669 38.2974 12.4243 37.8151 13.0985C36.5169 14.9165 35.8997 14.6279 33.4997 13.1234C31.8967 12.1176 29.9339 10.8911 27.4865 11.0023C26.9146 9.66226 25.5857 8.72156 24.0368 8.72156ZM12.7868 20.0873L17.1594 30.4716H8.41425L12.7868 20.0873ZM35.2868 20.0873L39.6594 30.4716H30.9143L35.2868 20.0873Z" fill="white"/>
<path d="M20.9917 26.9279V19.9583C20.9917 19.5436 21.2106 19.3247 21.6253 19.3247H23.8602C24.7011 19.3247 25.1043 19.3823 25.4615 19.5205C26.3946 19.8777 26.9821 20.7186 26.9821 21.9167C26.9821 22.7922 26.5674 23.7484 25.7495 24.1631V24.1861C25.7495 24.1861 25.8647 24.3359 26.0605 24.6815L27.2355 26.8012C27.489 27.2389 27.2931 27.5615 26.7978 27.5615H25.9223C25.5767 27.5615 25.3463 27.4233 25.1735 27.1122L23.9523 24.7852H23.0077V26.9279C23.0077 27.3426 22.7888 27.5615 22.3741 27.5615H21.6253C21.2106 27.5615 20.9917 27.3426 20.9917 26.9279ZM23.0077 23.0572H23.8832C24.5283 23.0572 24.9315 22.7001 24.9315 22.0434C24.9315 21.6287 24.8279 21.3177 24.4477 21.1679C24.2634 21.0873 24.0215 21.0527 23.6874 21.0527H23.0077V23.0572Z" fill="white"/>
</svg>
